<svg xmlns="http://www.w3.org/2000/svg" xml:space="preserve" preserveAspectRatio="xMinYMin meet" style="enable-background:new 0 0 235.146 51.607" viewBox="0 0 235.146 51.607"><path d="M131.952 9.402c1.594 0 2.87.538 3.747 1.375 1.594 1.515 1.833 3.707 1.833 5.699 0 1.953-.239 4.165-1.833 5.68-.877.837-2.152 1.375-3.747 1.375h-4.663V9.402h4.663zm2.989 12.097c1.395-1.295 1.515-3.428 1.515-5.022 0-1.634-.12-3.746-1.515-5.042-.717-.678-1.813-1.017-2.989-1.017h-3.626v12.097h3.626c1.176 0 2.272-.339 2.989-1.016zM141.277 22.415c-.817-.956-1.315-2.312-1.315-3.826 0-1.255.199-2.491.997-3.547.857-1.136 2.032-1.754 3.487-1.754 2.75 0 4.404 2.192 4.404 4.843 0 .239 0 .378-.02.658h-7.872c.04 2.212 1.335 4.065 3.567 4.065 1.574 0 2.81-1.036 3.049-2.312h1.037c-.299 1.873-2.093 3.268-4.085 3.268-1.436 0-2.592-.638-3.249-1.395zm6.536-4.523c-.04-1.893-1.216-3.667-3.368-3.667-2.112 0-3.428 1.713-3.468 3.667h6.836zM151.797 13.567h.917l.08 1.893c.558-1.315 2.033-2.172 3.408-2.172 1.176 0 2.053.379 2.73.957 1.156.977 1.674 2.511 1.674 4.285 0 1.694-.499 3.229-1.575 4.225-.677.638-1.614 1.056-2.81 1.056-1.455 0-2.87-.817-3.428-2.092v5.779h-.996V13.567zm6.656 8.37c.797-.857 1.136-2.112 1.136-3.388 0-1.415-.398-2.75-1.355-3.567-.498-.438-1.176-.717-2.053-.717-.896 0-1.574.339-2.092.817-.917.876-1.315 2.092-1.315 3.467 0 1.475.359 2.63 1.295 3.487.518.479 1.216.797 2.152.797.977.001 1.714-.338 2.232-.896zM162.835 20.761c0-1.773 1.355-2.87 3.348-3.009l3.667-.259v-.877c0-1.674-1.215-2.391-2.75-2.391-1.495 0-2.73.717-2.83 2.212h-.997c.14-2.053 1.793-3.149 3.786-3.149 2.272 0 3.787 1.116 3.787 3.408v4.922c0 .678.1 1.076.777 1.076.08 0 .199 0 .279-.02v.877c-.14.04-.319.06-.479.06-1.235 0-1.574-.937-1.574-1.993-.538 1.415-2.052 2.192-3.587 2.192-1.932 0-3.427-1.176-3.427-3.049zm7.015-1.833v-.518l-3.567.219c-1.535.1-2.431.937-2.431 2.112 0 1.395 1.076 2.152 2.491 2.152 2.511.001 3.507-2.032 3.507-3.965zM174.592 13.567h.917l.08 2.052c.438-1.395 1.793-2.152 3.208-2.152.299 0 .638 0 .937.1v.957c-.319-.08-.658-.1-.977-.1-2.312 0-3.168 1.913-3.168 4.125v4.982h-.996v-9.964zM183.239 20.94v-6.457h-2.352v-.917h2.352v-2.75l.997-.239v2.989h3.128v.917h-3.128V20.8c0 1.096.338 1.933 1.793 1.933.538 0 .957-.06 1.475-.18v.877a4.99 4.99 0 0 1-1.554.239c-1.953.002-2.711-1.134-2.711-2.729zM189.894 13.567h.917l.08 1.953a3.268 3.268 0 0 1 3.129-2.232c1.714 0 2.71.877 3.108 2.152.538-1.235 1.614-2.152 3.289-2.152 2.332 0 3.308 1.535 3.308 3.667v6.576h-.996v-6.457c0-1.754-.678-2.85-2.412-2.85-1.873 0-2.969 1.654-2.969 3.667v5.64h-1.036v-6.457c0-1.754-.757-2.85-2.411-2.85-1.913 0-3.009 1.793-3.009 3.926v5.38h-.996v-9.963zM207.947 22.415c-.817-.956-1.315-2.312-1.315-3.826 0-1.255.199-2.491.997-3.547.857-1.136 2.032-1.754 3.487-1.754 2.75 0 4.404 2.192 4.404 4.843 0 .239 0 .378-.02.658h-7.872c.04 2.212 1.335 4.065 3.567 4.065 1.574 0 2.81-1.036 3.049-2.312h1.037c-.299 1.873-2.093 3.268-4.085 3.268-1.436 0-2.592-.638-3.249-1.395zm6.536-4.523c-.04-1.893-1.216-3.667-3.368-3.667-2.112 0-3.428 1.713-3.468 3.667h6.836zM218.467 13.567h.917l.08 1.913c.518-1.375 2.073-2.192 3.468-2.192 2.271 0 3.527 1.515 3.527 3.727v6.517h-.996v-6.417c0-1.674-.857-2.85-2.63-2.85-2.212 0-3.368 1.833-3.368 4.045v5.221h-.996v-9.964zM230.881 20.94v-6.457h-2.352v-.917h2.352v-2.75l.997-.239v2.989h3.128v.917h-3.128V20.8c0 1.096.338 1.933 1.793 1.933.538 0 .957-.06 1.475-.18v.877a4.99 4.99 0 0 1-1.554.239c-1.954.002-2.711-1.134-2.711-2.729zM127.907 46.545c-1.096-1.056-1.514-2.371-1.514-4.085 0-1.694.418-3.029 1.514-4.085.718-.677 1.714-1.176 2.989-1.176s2.272.499 2.989 1.176c1.096 1.056 1.515 2.392 1.515 4.085 0 1.714-.418 3.029-1.515 4.085-.717.678-1.714 1.176-2.989 1.176s-2.271-.498-2.989-1.176zm5.281-.677c.937-.917 1.196-2.092 1.196-3.408 0-1.295-.259-2.491-1.196-3.408-.538-.538-1.295-.877-2.292-.877-.996 0-1.753.339-2.292.877-.937.917-1.196 2.112-1.196 3.408 0 1.315.259 2.491 1.196 3.408.538.538 1.295.877 2.292.877.997 0 1.754-.339 2.292-.877zM139.065 38.395h-2.112v-.917h2.112v-1.694c0-1.515.957-2.85 2.87-2.85.578 0 1.036.06 1.415.159v.897c-.359-.1-.757-.16-1.335-.16-1.295 0-1.953.717-1.953 1.993v1.654h3.088v.917h-3.088v9.047h-.997v-9.046zM154.787 33.313c2.61 0 4.643 1.255 4.643 4.025s-2.033 4.025-4.643 4.025h-3.926v6.078h-1.037V33.313h4.963zm3.567 4.025c0-2.192-1.574-3.029-3.627-3.029h-3.866v6.058h3.866c2.052.001 3.627-.837 3.627-3.029zM163.035 33.014v6.297c.558-1.275 2.033-2.113 3.428-2.113 2.272 0 3.567 1.435 3.567 3.667v6.576h-.996v-6.517c0-1.753-.837-2.79-2.631-2.79-2.431 0-3.368 2.172-3.368 4.324v4.982h-.996V33.014h.996zM172.28 51.328v-.976c.359.179.797.299 1.295.299.957 0 1.554-.438 2.013-1.594l.578-1.455-4.065-10.124h1.096l3.448 8.848 3.328-8.848h1.056l-4.563 11.917c-.618 1.614-1.515 2.212-2.83 2.212-.638 0-1.196-.179-1.356-.279zM182.362 44.413h1.016c.16 1.634 1.455 2.351 3.089 2.351 1.654 0 2.89-.717 2.89-2.072 0-.877-.618-1.614-1.833-1.773l-1.933-.259c-1.674-.219-2.81-1.016-2.81-2.531 0-1.774 1.714-2.93 3.587-2.93 2.152 0 3.707 1.236 3.767 3.029h-.997c-.139-1.435-1.315-2.092-2.77-2.092s-2.57.777-2.57 1.893c0 .817.438 1.435 1.933 1.634l1.894.259c1.873.259 2.75 1.515 2.75 2.71 0 2.033-1.833 3.089-3.906 3.089-2.373 0-4.007-1.256-4.107-3.308zM194.398 33.313v1.475h-1.355v-1.475h1.355zm-.16 4.165v9.964h-1.016v-9.964h1.016zM198.701 46.525c-1.056-1.056-1.435-2.372-1.435-4.065 0-1.714.358-3.049 1.435-4.085.717-.697 1.734-1.176 3.009-1.176 2.112 0 3.727 1.295 3.966 3.368h-1.056c-.219-1.375-1.355-2.392-2.91-2.392-.977 0-1.754.319-2.292.857-.937.937-1.136 2.112-1.136 3.428 0 1.295.219 2.471 1.156 3.408.538.538 1.315.857 2.292.857 1.554 0 2.69-1.017 2.909-2.392h1.037c-.259 2.053-1.874 3.368-3.966 3.368-1.275 0-2.292-.458-3.009-1.176zM207.647 44.413h1.016c.16 1.634 1.455 2.351 3.089 2.351 1.654 0 2.89-.717 2.89-2.072 0-.877-.618-1.614-1.833-1.773l-1.933-.259c-1.674-.219-2.81-1.016-2.81-2.531 0-1.774 1.714-2.93 3.587-2.93 2.152 0 3.707 1.236 3.767 3.029h-.997c-.139-1.435-1.315-2.092-2.77-2.092s-2.57.777-2.57 1.893c0 .817.438 1.435 1.933 1.634l1.894.259c1.873.259 2.75 1.515 2.75 2.71 0 2.033-1.833 3.089-3.906 3.089-2.373 0-4.007-1.256-4.107-3.308z" style="fill:#1d1d1b"/><path d="M55.208 6.665h7.241L64.182 0l-8.974.001c-7.159 0-11.55 5.033-11.55 11.629v35.815h6.618V33.842h5.179l1.693-6.618h-6.872V11.63c-.001-3.198 1.553-4.965 4.932-4.965z" style="fill:#83b818"/><path d="m117.123 47.444-.001-22.339c0-7.159-4.999-11.551-11.551-11.551h-8.642c-1.786 0-3.45.337-4.935.956V-.001h-6.62v47.444h6.622V25.106c0-3.378 1.757-4.932 4.934-4.932h8.642c3.176 0 4.932 1.554 4.932 4.932v22.339h6.619zM68.57.016h-1.288L65.608 6.68h2.962c3.379 0 4.933 1.767 4.933 4.965v10.63c0 3.198-1.554 4.967-4.933 4.967h-8.323l-1.717 6.662h10.04c7.159 0 11.551-5.032 11.551-11.629v-10.63C80.12 5.048 75.728.016 68.57.016zM30.412 5.762l-9.276 10.9c.442.259.851.567 1.211.926l9.159-10.761a3.24 3.24 0 0 0 2.082.435 3.271 3.271 0 0 0 2.847-3.639 3.223 3.223 0 0 0-1.238-2.169 3.246 3.246 0 0 0-2.415-.66 3.261 3.261 0 0 0-2.179 1.232 3.235 3.235 0 0 0-.191 3.736zM15.384 9.073l1.243 6.955c.474-.12.968-.191 1.479-.191l.033.002-1.254-7.013c2.016-.692 3.308-2.716 3.043-4.849-.31-2.483-2.596-4.257-5.086-3.94-2.495.312-4.273 2.585-3.964 5.068.285 2.278 2.231 3.964 4.506 3.968zM13.03 38.909l3.874-11.168a5.947 5.947 0 0 1-1.439-.497l-3.879 11.182a4.553 4.553 0 0 0-1.271-.022c-2.495.311-4.273 2.584-3.964 5.067.286 2.292 2.253 3.973 4.517 3.973.188 0 .379-.012.57-.036 2.494-.311 4.272-2.583 3.963-5.066a4.488 4.488 0 0 0-2.371-3.433zM36.579 29.346a4.497 4.497 0 0 0-1.723-3.021 4.545 4.545 0 0 0-3.363-.919 4.582 4.582 0 0 0-2.939 1.607l-4.902-2.842c-.198.473-.46.912-.767 1.315l4.901 2.842a4.51 4.51 0 0 0-.257 2.145c.31 2.481 2.587 4.251 5.086 3.939a4.535 4.535 0 0 0 3.034-1.717 4.492 4.492 0 0 0 .93-3.349zM12.112 22.219c-.007-.123-.019-.245-.019-.37 0-.394.04-.777.113-1.15L6.524 20.3a3.268 3.268 0 0 0-3.652-2.826 3.262 3.262 0 0 0-2.179 1.233 3.234 3.234 0 0 0-.668 2.406 3.27 3.27 0 0 0 3.653 2.83 3.255 3.255 0 0 0 2.674-2.129l5.76.405z" style="fill:#9c9b9b"/><circle cx="18.106" cy="21.849" r="6.012" style="fill:#83b818"/></svg>